<?xml version="1.0" encoding="UTF-8" standalone="no"?>
<svg
   xmlns:dc="http://purl.org/dc/elements/1.1/"
   xmlns:cc="http://creativecommons.org/ns#"
   xmlns:rdf="http://www.w3.org/1999/02/22-rdf-syntax-ns#"
   xmlns:svg="http://www.w3.org/2000/svg"
   xmlns="http://www.w3.org/2000/svg"
   xmlns:sodipodi="http://sodipodi.sourceforge.net/DTD/sodipodi-0.dtd"
   xmlns:inkscape="http://www.inkscape.org/namespaces/inkscape"
   version="1.1"
   x="0px"
   y="0px"
   viewBox="0 0 100 125"
   enable-background="new 0 0 100 100"
   xml:space="preserve"
   id="svg2"
   inkscape:version="0.91 r13725"
   sodipodi:docname="noun_154063_cc.svg"><metadata
     id="metadata20"><rdf:RDF><cc:Work
         rdf:about=""><dc:format>image/svg+xml</dc:format><dc:type
           rdf:resource="http://purl.org/dc/dcmitype/StillImage" /></cc:Work></rdf:RDF></metadata><defs
     id="defs18" /><sodipodi:namedview
     pagecolor="#ffffff"
     bordercolor="#666666"
     borderopacity="1"
     objecttolerance="10"
     gridtolerance="10"
     guidetolerance="10"
     inkscape:pageopacity="0"
     inkscape:pageshadow="2"
     inkscape:window-width="1855"
     inkscape:window-height="1056"
     id="namedview16"
     showgrid="false"
     inkscape:zoom="1.888"
     inkscape:cx="-78.972458"
     inkscape:cy="62.5"
     inkscape:window-x="65"
     inkscape:window-y="24"
     inkscape:window-maximized="1"
     inkscape:current-layer="svg2" /><g
     id="g4"
     transform="matrix(-1.3143043,0,0,1.3143043,115.71521,-2.1190725)"><path
       d="M 74.498,17.133 C 74.326,17.034 74.132,16.997 73.94,17.008 L 50.152,3.792 C 49.848,3.622 49.474,3.624 49.171,3.798 l -23.116,13.21 c -0.19,-0.011 -0.382,0.027 -0.553,0.125 C 25.191,17.312 25,17.642 25,18 l 0,62 c 0,0.358 0.191,0.689 0.503,0.867 l 23.834,13.666 c 0.153,0.089 0.325,0.133 0.497,0.133 0.173,0 0.347,-0.045 0.501,-0.135 l 24.166,-14 C 74.81,80.353 75,80.022 75,79.666 L 75,18 c 0,-0.358 -0.191,-0.688 -0.502,-0.867 z M 49.674,5.813 71.817,18.115 50,30.843 28.166,18.105 49.674,5.813 Z M 27,19.741 49,32.574 49,49.288 27,36.895 27,19.741 Z M 27,39.19 49,51.584 49,92.035 27,79.421 27,39.19 Z m 46,39.9 -22,12.745 0,-59.26 22,-12.833 0,59.348 z"
       id="path6"
       inkscape:connector-curvature="0" /><path
       d="m 30,44 c -0.553,0 -1,0.447 -1,1 l 0,15 c 0,0.553 0.447,1 1,1 0.553,0 1,-0.447 1,-1 l 0,-15 c 0,-0.553 -0.447,-1 -1,-1 z"
       id="path8"
       inkscape:connector-curvature="0" /><path
       d="m 30,24 c -0.553,0 -1,0.447 -1,1 l 0,10 c 0,0.553 0.447,1 1,1 0.553,0 1,-0.447 1,-1 l 0,-10 c 0,-0.553 -0.447,-1 -1,-1 z"
       id="path10"
       inkscape:connector-curvature="0" /></g></svg>