<svg
   xmlns:dc="http://purl.org/dc/elements/1.1/"
   xmlns:cc="http://creativecommons.org/ns#"
   xmlns:rdf="http://www.w3.org/1999/02/22-rdf-syntax-ns#"
   xmlns:svg="http://www.w3.org/2000/svg"
   xmlns="http://www.w3.org/2000/svg"
   xmlns:sodipodi="http://sodipodi.sourceforge.net/DTD/sodipodi-0.dtd"
   xmlns:inkscape="http://www.inkscape.org/namespaces/inkscape"
   version="1.1"
   id="Layer_1"
   x="0px"
   y="0px"
   viewBox="0 0 72 72"
   style="enable-background:new 0 0 72 72;"
   xml:space="preserve"
   sodipodi:docname="fridge-is.svg"
   inkscape:version="0.92.1 r"><metadata
     id="metadata13"><rdf:RDF><cc:Work
         rdf:about=""><dc:format>image/svg+xml</dc:format><dc:type
           rdf:resource="http://purl.org/dc/dcmitype/StillImage" /><dc:title></dc:title></cc:Work></rdf:RDF></metadata><defs
     id="defs11" /><sodipodi:namedview
     pagecolor="#ffffff"
     bordercolor="#666666"
     borderopacity="1"
     objecttolerance="10"
     gridtolerance="10"
     guidetolerance="10"
     inkscape:pageopacity="0"
     inkscape:pageshadow="2"
     inkscape:window-width="1920"
     inkscape:window-height="1080"
     id="namedview9"
     showgrid="false"
     inkscape:zoom="9.2709556"
     inkscape:cx="21.627378"
     inkscape:cy="32.041564"
     inkscape:window-x="0"
     inkscape:window-y="0"
     inkscape:window-maximized="0"
     inkscape:current-layer="Layer_1" /><style
     type="text/css"
     id="style2">
	.st1{fill:none;stroke:none}
  .st0{stroke-linecap:round;stroke-linejoin:round;stroke-miterlimit:10;}
</style><path
     class="st0"
     d="M17.3,20l8.7,5v28l-8.7-5V20z M32.9,57l8.7,5V34l-8.7-5V57z M18.8,25.5c0.1-0.1,1.9-1.1,1.9-1.1 M18.8,28  c0.2-0.1,4-2.3,4-2.3 M34.8,34.4c0.1-0.1,1.8-1.1,1.8-1.1 M34.8,36.8c0.2-0.1,3.8-2.2,3.8-2.2 M52.1,32.5c0.2-0.1,4.8-2.7,4.8-2.7   M52.1,35.5c0.2-0.1,4.8-2.7,4.8-2.7 M52.1,59.5c0.2-0.1,4.8-2.7,4.8-2.7 M52.1,56.5c0.2-0.1,4.8-2.7,4.8-2.7 M31.2,40.7v3.9   M27.7,39.4v3.9 M13.9,50L45,68V32L13.9,14L13.9,50z M13.9,14l15.4-8.9L60.6,23L45,32L13.9,14z M60.6,23v36L45,68 M29.5,59l0-36  l3.5-2 M17.5,12l31.1,18l-0.1,35.7"
     id="path4"
     style="fill:none;" /><rect
     class="st1"
     width="72"
     height="72"
     id="rect6" /></svg>
